<?xml version="1.0" encoding="utf-8"?>
<!-- Generator: Adobe Illustrator 25.1.0, SVG Export Plug-In . SVG Version: 6.00 Build 0)  -->
<svg version="1.1" xmlns="http://www.w3.org/2000/svg" xmlns:xlink="http://www.w3.org/1999/xlink" x="0px" y="0px"
	 viewBox="0 0 500 500" style="enable-background:new 0 0 500 500;" xml:space="preserve">
<style type="text/css">
	.st0{display:none;}
	.st1{display:inline;fill:#B8BFD4;}
	.st2{opacity:0.8;fill:url(#SVGID_1_);}
	.st3{display:none;fill:#7A4848;}
	.st4{opacity:0.2;}
	.st5{fill:#182632;}
	.st6{fill:#FFFFFF;}
	.st7{fill:#E1E1E1;}
	.st8{fill:#BBBBBB;}
	.st9{fill:#003948;}
	.st10{opacity:0.57;fill:url(#SVGID_2_);}
	.st11{opacity:0.57;fill:url(#SVGID_3_);}
	.st12{fill:#F1BC03;}
	.st13{opacity:0.5;fill:#FFFFFF;}
	.st14{display:inline;opacity:0.2;}
	.st15{display:inline;}
	.st16{fill:#DC3645;}
	.st17{fill:#BE292C;}
	.st18{fill:#F68E37;}
	.st19{fill:#FAF8A8;}
	.st20{fill:#EF4C65;}
	.st21{fill:#33C8CB;}
	.st22{opacity:0.1;}
	.st23{fill:#00EEED;}
	.st24{fill:#F7FAFB;}
</style>
<g id="BACKGROUND" class="st0">
	<rect class="st1" width="500" height="500"/>
</g>
<g id="OBJECTS">
	<linearGradient id="SVGID_1_" gradientUnits="userSpaceOnUse" x1="248.872" y1="-453.3741" x2="248.872" y2="479.1234">
		<stop  offset="0" style="stop-color:#FFFFFF"/>
		<stop  offset="1" style="stop-color:#FFFFFF;stop-opacity:0"/>
	</linearGradient>
	<circle class="st2" cx="248.87" cy="265.89" r="165.2"/>
	<rect y="342.49" class="st3" width="500" height="157.51"/>
	<g>
		<g>
			<path class="st4" d="M402.41,361.62c0,5.87-65.57,10.63-146.45,10.63c-80.88,0-146.45-4.76-146.45-10.63
				c0-5.87,65.57-10.63,146.45-10.63C336.84,351,402.41,355.75,402.41,361.62z"/>
			<g>
				<path class="st5" d="M377.48,290.09H125.22V156.04c0-8.26,6.76-15.02,15.02-15.02h223.21c7.71,0,14.02,6.31,14.02,14.02V290.09z
					"/>
				<path class="st6" d="M354.86,312.7H147.83c-12.49,0-22.61-10.12-22.61-22.61l0,0h252.26l0,0
					C377.48,302.58,367.35,312.7,354.86,312.7z"/>
				<rect x="228.3" y="312.7" class="st7" width="45.77" height="38.09"/>
				<rect x="228.3" y="312.7" class="st8" width="45.77" height="12.07"/>
				<path class="st6" d="M304.09,365.28H198.27v-2.49c0-6.6,5.4-12,12-12h81.82c6.6,0,12,5.4,12,12V365.28z"/>
			</g>
			<g>
				<path class="st9" d="M139.75,151.89c-2.17,0-3.95,1.78-3.95,3.95v2.84l135.36,117.03h17.99h5.19L151.12,151.89H139.75z"/>
				<path class="st9" d="M135.8,201.92v15.3v34.65v19.89c0,2.17,1.78,3.95,3.95,3.95h1.73h34.76h10.42h64.87L135.8,175.65V201.92z"
					/>
				<path class="st9" d="M362.62,151.89h-24.19h-10.42h-34.76h-34.9h-42.47h-8.38l143.22,123.82h11.9c2.17,0,3.95-1.78,3.95-3.95
					v-43.91v-15.3v-56.71C366.57,153.67,364.79,151.89,362.62,151.89z"/>
				<linearGradient id="SVGID_2_" gradientUnits="userSpaceOnUse" x1="317.923" y1="268.2607" x2="85.8222" y2="79.6173">
					<stop  offset="0" style="stop-color:#00556A"/>
					<stop  offset="1" style="stop-color:#007D8D"/>
				</linearGradient>
				<polygon class="st10" points="197.12,151.89 151.12,151.89 294.33,275.71 307.9,275.71 350.71,275.71 207.5,151.89 				"/>
				<linearGradient id="SVGID_3_" gradientUnits="userSpaceOnUse" x1="293.485" y1="298.3283" x2="61.384" y2="109.6848">
					<stop  offset="0" style="stop-color:#00556A"/>
					<stop  offset="1" style="stop-color:#007D8D"/>
				</linearGradient>
				<polygon class="st11" points="135.8,175.65 251.53,275.71 271.16,275.71 135.8,158.68 				"/>
			</g>
			<path class="st8" d="M257.42,300.64c0,3.94-3.19,7.13-7.13,7.13c-3.94,0-7.13-3.19-7.13-7.13c0-3.94,3.19-7.13,7.13-7.13
				C254.23,293.51,257.42,296.7,257.42,300.64z"/>
		</g>
		<g>
			<g>
				<path class="st6" d="M230.59,179.51c-15.68,32.09-3.85,57.67-3.85,57.67l-16.05,1.41l-10.46,0.92
					c-12.05-50.98,36.4-85.34,36.74-85.57c-24.88,31.16-20.54,61.85-20.54,61.85C216.14,200.32,230.37,179.83,230.59,179.51z"/>
				<path class="st7" d="M210.7,238.58l-10.46,0.92c-12.05-50.98,36.4-85.34,36.74-85.57c-0.25,0.27-31.96,35.14-32.34,59.02
					C204.42,226.74,207.79,234.49,210.7,238.58z"/>
			</g>
			<g>
				<g>
					<path class="st6" d="M346.28,251.33c-2.06,0-4.05,0.31-5.92,0.88c-3.04-7-9.05-12.4-16.44-14.62c-0.15-0.05-0.31-0.1-0.47-0.14
						c-0.09-0.02-0.18-0.05-0.27-0.08c-2.16-0.58-4.44-0.89-6.78-0.89c-1.31,0-2.6,0.1-3.86,0.28c-2.62-5.34-8.11-9.01-14.46-9.01
						c-0.88,0-1.74,0.07-2.58,0.21c-4.08,0.66-7.65,2.85-10.1,5.96c-2.12-0.52-4.34-0.8-6.62-0.8c-0.29,0-0.58,0.01-0.87,0.02
						c-5.06-6.85-13.19-11.28-22.35-11.28c-6.35,0-12.2,2.13-16.88,5.72c-3.11,2.38-5.7,5.4-7.57,8.87
						c-1.72-0.93-3.56-1.69-5.47-2.24c-1.08-0.31-2.18-0.56-3.31-0.74c-1.43-0.23-2.91-0.35-4.41-0.35c-3.31,0-6.48,0.58-9.42,1.64
						c-0.7,0.25-1.39,0.53-2.06,0.84c-1.89-3.9-4.67-7.3-8.07-9.92c-1.03-0.79-2.11-1.52-3.25-2.16v-0.13
						c0-1.09-0.06-2.16-0.18-3.21c-0.19-1.65-0.52-3.25-0.99-4.8c0,0,0,0,0,0c-0.02-0.08-0.04-0.15-0.07-0.23c0,0,0,0,0,0
						c-2.22-7.16-7.27-13.09-13.84-16.47c-2.71-1.4-5.68-2.36-8.81-2.8c0,0,0,0,0,0c-1.27-0.18-2.57-0.27-3.88-0.27
						c-2.53,0-4.97,0.34-7.3,0.97c-1.52,0.41-2.99,0.95-4.39,1.6c-2.61-2.72-5.99-4.69-9.8-5.56c0.42-0.71,0.81-1.44,1.17-2.19
						c0.18-0.38,0.35-0.76,0.5-1.14c0.1-0.26,0.21-0.51,0.3-0.78c0.15-0.39,0.28-0.79,0.41-1.19c0.08-0.25,0.15-0.5,0.22-0.75
						c0.62-2.18,0.95-4.49,0.95-6.87c0-2.76-0.44-5.42-1.27-7.9c-0.41-1.24-0.91-2.44-1.51-3.59c-0.06-0.11-0.12-0.23-0.18-0.34v0h0
						v0c-0.14-0.27-0.29-0.54-0.45-0.8c-0.08-0.13-0.15-0.27-0.23-0.4c-0.16-0.26-0.32-0.52-0.49-0.77
						c-0.92-1.4-1.98-2.71-3.16-3.89c-0.3-0.3-0.61-0.6-0.92-0.89v0c1.45-2.16,2.29-4.76,2.29-7.56c0-0.57-0.03-1.13-0.1-1.69h-3.64
						c-2.17,0-3.95,1.78-3.95,3.95v115.92c0,2.17,1.78,3.95,3.95,3.95h222.87c1.95,0,3.58-1.43,3.9-3.29v-3.31
						C365.23,259.08,356.66,251.33,346.28,251.33z"/>
				</g>
				<path class="st7" d="M346.28,251.33c-2.06,0-4.05,0.31-5.92,0.88c-3.04-7-9.05-12.4-16.44-14.62c7.6,2.41,7.35,11.77,0.27,15.18
					c-1.46,0.7-3.2,1.15-5.22,1.24c-12.07,0.51-14.03-3.97-14.03-3.97s-2.72,10.86-14.78,12.25c-5.11,0.59-9.39-0.1-12.76-1.22h0
					c-5.84-1.93-8.96-5.14-8.96-5.14s-4.52,4.35-12.17,6.9c-4.25,1.42-9.47,2.29-15.41,1.55c-1.03-0.13-2.01-0.28-2.95-0.45
					c-15.92-2.89-17.72-11.33-17.72-11.33c-3.38,5.83-10.24,9.73-21.29,7.43c-11.04-2.3-12.77-9.47-12.77-9.47
					c-4.85,7.88-19.46,9.22-23.81,0c-4.35-9.22,0-15.88,0-15.88c-7.17,0.51-14.45-11.58-9.46-24.06c2.33-5.84,6.59-9,11.05-10.66h0
					c7.67-2.86,15.96-1.29,16.13-1.25c-2.71-1.4-5.68-2.36-8.81-2.8c0,0,0,0,0,0c-1.27-0.18-2.57-0.27-3.88-0.27
					c-2.53,0-4.97,0.34-7.3,0.97c-1.52,0.41-2.99,0.95-4.39,1.6c-2.61-2.72-5.99-4.69-9.8-5.56c0.42-0.71,0.81-1.44,1.17-2.19
					c0.18-0.38,0.35-0.76,0.5-1.14c0.1-0.26,0.21-0.51,0.3-0.78c0.15-0.39,0.28-0.79,0.41-1.19c0.08-0.25,0.15-0.5,0.22-0.75
					c0.62-2.18,0.95-4.49,0.95-6.87c0-2.76-0.44-5.42-1.27-7.9c-0.41-1.24-0.91-2.44-1.51-3.59c-0.06-0.11-0.12-0.23-0.18-0.34v0h0
					v0c-0.14-0.27-0.29-0.54-0.45-0.8c-0.08-0.13-0.15-0.27-0.23-0.4c-0.16-0.26-0.32-0.52-0.49-0.77c-0.92-1.4-1.98-2.71-3.16-3.89
					c-0.3-0.3-0.61-0.6-0.92-0.89c1.45-2.16,2.29-4.76,2.29-7.56c0-0.57-0.03-1.13-0.1-1.69h-3.64c-2.17,0-3.95,1.78-3.95,3.95
					v115.92c0,2.17,1.78,3.95,3.95,3.95h222.87c1.95,0,3.58-1.43,3.9-3.29v-3.31C365.23,259.08,356.66,251.33,346.28,251.33z"/>
			</g>
			<g>
				<path class="st7" d="M179.62,181.6c1.07,1.97,0.34,4.43-1.62,5.5c-1.97,1.07-4.43,0.34-5.5-1.62c-1.07-1.97-0.34-4.43,1.62-5.5
					C176.09,178.91,178.55,179.63,179.62,181.6z"/>
				<path class="st6" d="M179.43,181.25c0.78,1.43,0.25,3.22-1.18,3.99c-1.43,0.78-3.22,0.25-3.99-1.18
					c-0.78-1.43-0.25-3.22,1.18-3.99C176.86,179.29,178.65,179.82,179.43,181.25z"/>
			</g>
			<g>
				<path class="st7" d="M256.31,212.58c0.67,1.24,0.22,2.78-1.02,3.45c-1.24,0.67-2.78,0.22-3.45-1.02
					c-0.67-1.24-0.22-2.78,1.02-3.45C254.09,210.89,255.64,211.35,256.31,212.58z"/>
				<path class="st6" d="M256.19,212.36c0.49,0.9,0.16,2.02-0.74,2.51c-0.9,0.49-2.02,0.16-2.51-0.74c-0.49-0.9-0.16-2.02,0.74-2.51
					C254.58,211.13,255.7,211.46,256.19,212.36z"/>
			</g>
			<g>
				<path class="st7" d="M207.08,174.53c0.36,0.66,0.12,1.48-0.54,1.84c-0.66,0.36-1.48,0.12-1.84-0.54
					c-0.36-0.66-0.12-1.48,0.54-1.84C205.9,173.62,206.72,173.87,207.08,174.53z"/>
				<path class="st6" d="M207.02,174.41c0.26,0.48,0.08,1.08-0.39,1.34c-0.48,0.26-1.08,0.08-1.34-0.39
					c-0.26-0.48-0.08-1.08,0.39-1.34C206.16,173.75,206.75,173.93,207.02,174.41z"/>
			</g>
			<g>
				<polygon class="st6" points="194.14,209.17 196.27,187.09 192.41,197.34 194.38,161.45 190.48,204.35 194.24,196.76 				"/>
				<polygon class="st6" points="227.43,225.04 243.36,209.61 233.77,214.91 258.54,188.86 227.77,219 235.55,215.65 				"/>
			</g>
		</g>
		<g>
			
				<rect x="310.52" y="283.52" transform="matrix(0.9999 -0.0145 0.0145 0.9999 -4.2607 4.7055)" class="st4" width="24.96" height="26.45"/>
			
				<rect x="309.15" y="282.94" transform="matrix(0.9999 -0.0145 0.0145 0.9999 -4.2404 4.6842)" class="st12" width="24.96" height="24.96"/>
			
				<rect x="319.34" y="276.89" transform="matrix(0.9999 -0.0144 0.0144 0.9999 -4.0289 4.674)" class="st13" width="4.17" height="8.5"/>
		</g>
	</g>
	<g>
		<g>
			<polygon class="st4" points="374.64,432.32 127.03,432.32 159.73,380.42 341.94,380.42 			"/>
			<g>
				<g>
					<polygon class="st7" points="366.33,416.31 134.79,416.31 157.34,380.42 343.78,380.42 					"/>
					<rect x="134.79" y="416.31" class="st8" width="231.53" height="8.13"/>
				</g>
				<g>
					<polygon class="st6" points="169.71,386.75 158.01,386.75 159.73,383.07 171.05,383.07 					"/>
					<polygon class="st6" points="171.23,386.75 172.71,383.07 184.03,383.07 182.93,386.75 					"/>
					<polygon class="st6" points="184.44,386.75 185.69,383.07 197.01,383.07 196.14,386.75 					"/>
					<polygon class="st6" points="197.7,386.75 198.71,383.07 210.04,383.07 209.4,386.75 					"/>
					<polygon class="st6" points="210.93,386.75 211.7,383.07 223.03,383.07 222.63,386.75 					"/>
					<polygon class="st6" points="224.16,386.75 224.7,383.07 236.03,383.07 235.86,386.75 					"/>
					<polygon class="st6" points="237.35,386.75 237.66,383.07 248.99,383.07 249.05,386.75 					"/>
					<polygon class="st6" points="250.47,386.75 250.53,383.07 261.86,383.07 262.17,386.75 					"/>
					<polygon class="st6" points="263.66,386.75 263.49,383.07 274.82,383.07 275.36,386.75 					"/>
					<polygon class="st6" points="276.89,386.75 276.49,383.07 287.82,383.07 288.59,386.75 					"/>
					<polygon class="st6" points="290.12,386.75 289.48,383.07 300.81,383.07 301.82,386.75 					"/>
					<polygon class="st6" points="303.38,386.75 302.51,383.07 313.83,383.07 315.08,386.75 					"/>
					<polygon class="st6" points="316.59,386.75 315.49,383.07 326.81,383.07 328.29,386.75 					"/>
					<polygon class="st6" points="329.81,386.75 341.51,386.75 339.8,383.07 328.47,383.07 					"/>
				</g>
				<g>
					<polygon class="st6" points="167.28,393.63 155.15,393.63 156.93,389.81 168.68,389.81 					"/>
					<polygon class="st6" points="168.85,393.63 170.39,389.81 182.13,389.81 180.98,393.63 					"/>
					<polygon class="st6" points="182.55,393.63 183.84,389.81 195.59,389.81 194.68,393.63 					"/>
					<polygon class="st6" points="196.3,393.63 197.35,389.81 209.09,389.81 208.43,393.63 					"/>
					<polygon class="st6" points="210.02,393.63 210.82,389.81 222.56,389.81 222.15,393.63 					"/>
					<polygon class="st6" points="223.73,393.63 224.29,389.81 236.04,389.81 235.86,393.63 					"/>
					<polygon class="st6" points="237.41,393.63 237.73,389.81 249.47,389.81 249.54,393.63 					"/>
					<polygon class="st6" points="251.01,393.63 251.08,389.81 262.82,389.81 263.14,393.63 					"/>
					<polygon class="st6" points="264.69,393.63 264.51,389.81 276.26,389.81 276.82,393.63 					"/>
					<polygon class="st6" points="278.4,393.63 277.99,389.81 289.73,389.81 290.53,393.63 					"/>
					<polygon class="st6" points="292.12,393.63 291.46,389.81 303.2,389.81 304.25,393.63 					"/>
					<polygon class="st6" points="305.86,393.63 304.96,389.81 316.7,389.81 317.99,393.63 					"/>
					<polygon class="st6" points="319.57,393.63 318.42,389.81 330.16,389.81 331.7,393.63 					"/>
					<polygon class="st6" points="333.27,393.63 345.4,393.63 343.62,389.81 331.87,389.81 					"/>
				</g>
				<g>
					<polygon class="st6" points="165.1,400.38 152.61,400.38 154.44,396.45 166.54,396.45 					"/>
					<polygon class="st6" points="166.72,400.38 168.3,396.45 180.4,396.45 179.22,400.38 					"/>
					<polygon class="st6" points="180.83,400.38 182.16,396.45 194.26,396.45 193.33,400.38 					"/>
					<polygon class="st6" points="194.99,400.38 196.07,396.45 208.17,396.45 207.49,400.38 					"/>
					<polygon class="st6" points="209.12,400.38 209.94,396.45 222.04,396.45 221.61,400.38 					"/>
					<polygon class="st6" points="223.25,400.38 223.82,396.45 235.92,396.45 235.74,400.38 					"/>
					<polygon class="st6" points="237.34,400.38 237.66,396.45 249.76,396.45 249.83,400.38 					"/>
					<polygon class="st6" points="251.34,400.38 251.41,396.45 263.51,396.45 263.83,400.38 					"/>
					<polygon class="st6" points="265.43,400.38 265.25,396.45 277.35,396.45 277.92,400.38 					"/>
					<polygon class="st6" points="279.56,400.38 279.13,396.45 291.22,396.45 292.05,400.38 					"/>
					<polygon class="st6" points="293.68,400.38 293,396.45 305.1,396.45 306.18,400.38 					"/>
					<polygon class="st6" points="307.84,400.38 306.91,396.45 319.01,396.45 320.33,400.38 					"/>
					<polygon class="st6" points="321.95,400.38 320.77,396.45 332.87,396.45 334.45,400.38 					"/>
					<polygon class="st6" points="336.06,400.38 348.56,400.38 346.73,396.45 334.63,396.45 					"/>
				</g>
				<g>
					<polygon class="st6" points="162.07,407.27 149.14,407.27 151.04,403.21 163.56,403.21 					"/>
					<polygon class="st6" points="163.75,407.27 165.38,403.21 177.9,403.21 176.68,407.27 					"/>
					<polygon class="st6" points="178.35,407.27 179.72,403.21 192.24,403.21 191.28,407.27 					"/>
					<polygon class="st6" points="193,407.27 194.11,403.21 206.63,403.21 205.93,407.27 					"/>
					<polygon class="st6" points="207.62,407.27 208.47,403.21 220.99,403.21 220.55,407.27 					"/>
					<polygon class="st6" points="278.22,403.21 265.7,403.21 263.9,403.21 251.38,403.21 249.67,403.21 237.15,403.21 
						222.83,403.21 222.24,407.27 236.82,407.27 249.75,407.27 251.31,407.27 264.23,407.27 265.89,407.27 278.82,407.27 					"/>
					<polygon class="st6" points="280.51,407.27 280.06,403.21 292.58,403.21 293.43,407.27 					"/>
					<polygon class="st6" points="295.12,407.27 294.42,403.21 306.94,403.21 308.05,407.27 					"/>
					<polygon class="st6" points="309.77,407.27 308.81,403.21 321.33,403.21 322.7,407.27 					"/>
					<polygon class="st6" points="324.38,407.27 323.15,403.21 335.67,403.21 337.31,407.27 					"/>
					<polygon class="st6" points="338.98,407.27 351.91,407.27 350.01,403.21 337.5,403.21 					"/>
				</g>
			</g>
		</g>
		<g>
			<path class="st4" d="M388.01,394.78c4.21-7.3,16.99-7.8,28.54-1.14c11.55,6.67,17.5,17.99,13.28,25.28
				c-4.21,7.3-16.99,7.8-28.54,1.14C389.74,413.39,383.79,402.07,388.01,394.78z"/>
			<g>
				<path class="st6" d="M429.58,412.31L429.58,412.31c-0.08,0.36-0.2,0.68-0.38,0.97c0,0,0,0.01-0.01,0.01
					c-4.37,7.08-27.71,3.03-30.3-3.22c-0.23-0.55-0.45-1.05-0.66-1.51c-3.24-6.96-5.3-5.02-10.98-9.74
					c-0.25-0.2-0.47-0.41-0.66-0.63c-0.02-0.03-0.05-0.05-0.07-0.08c-3.2-3.65,0.73-8.29,0.73-8.29c0.24-0.19,0.48-0.37,0.72-0.55
					c0-0.01,0-0.01,0-0.01c1.9-1.38,3.87-2.31,5.88-2.87c0.92-0.26,1.85-0.44,2.78-0.54C413.27,383.95,431.11,405.11,429.58,412.31z
					"/>
				<path class="st7" d="M429.2,413.28c-4.37,7.08-27.71,3.03-30.3-3.22c-0.23-0.55-0.45-1.05-0.66-1.51
					c-3.26-6.93-5.47-4.82-10.98-9.74c-0.24-0.21-0.46-0.42-0.66-0.63c-0.02-0.03-0.05-0.05-0.07-0.08
					c-3.2-3.65,0.73-8.29,0.73-8.29c0.24-0.19,0.48-0.37,0.72-0.55c-0.47,1.35-0.91,4.39,2.78,7.34c0.87,0.7,1.86,1.22,2.87,1.67
					c0.81,0.35,2.43,1.58,5.33,5.62c4.63,6.45,4,7.28,14.28,10.09C423.28,416.73,428.95,413.43,429.2,413.28z"/>
				<path class="st7" d="M404.04,391.5c-5.95-4.94-10.19-5.12-10.19-5.12c0.92-0.26,1.85-0.44,2.78-0.54
					C401.38,387.45,403.99,391.31,404.04,391.5z"/>
			</g>
		</g>
	</g>
	<g>
		<g>
			<circle class="st6" cx="88.93" cy="172.38" r="11.83"/>
		</g>
		<g>
			<path class="st6" d="M414.23,307.65c-9.98,1.02-10.81,1.85-11.83,11.83c-1.02-9.98-1.85-10.81-11.83-11.83
				c9.98-1.02,10.81-1.85,11.83-11.83C403.43,305.81,404.25,306.63,414.23,307.65z"/>
		</g>
	</g>
	<g class="st0">
		<rect x="404.43" y="232.03" class="st14" width="56.46" height="45.05"/>
		<g class="st15">
			<rect x="404.43" y="227.78" class="st6" width="56.46" height="45.05"/>
			<g>
				<path class="st16" d="M404.43,216.36v11.56h56.46v-11.56H404.43z M412.14,224.7c-1.54,0-2.78-1.24-2.78-2.78v0
					c0-1.53,1.25-2.78,2.78-2.78c1.54,0,2.78,1.24,2.78,2.78v0C414.91,223.46,413.67,224.7,412.14,224.7z M453.19,224.7
					c-1.54,0-2.78-1.24-2.78-2.78v0c0-1.53,1.24-2.78,2.78-2.78c1.54,0,2.78,1.24,2.78,2.78v0
					C455.96,223.46,454.73,224.7,453.19,224.7z"/>
				<path class="st17" d="M460.89,221.93v6h-56.46v-6h4.93c0,1.54,1.25,2.78,2.78,2.78c1.54,0,2.77-1.24,2.78-2.78h35.5
					c0,1.54,1.24,2.78,2.78,2.78c1.54,0,2.78-1.24,2.78-2.78H460.89z"/>
			</g>
			<path class="st6" d="M413.76,221.92h-3.26c-0.08,0-0.15-0.07-0.15-0.15v-10.67c0-0.55,0.45-1,1-1h1.56c0.55,0,1,0.45,1,1v10.67
				C413.91,221.86,413.85,221.92,413.76,221.92z"/>
			<path class="st6" d="M454.82,221.92h-3.26c-0.08,0-0.15-0.07-0.15-0.15v-10.67c0-0.55,0.45-1,1-1h1.56c0.55,0,1,0.45,1,1v10.67
				C454.97,221.86,454.9,221.92,454.82,221.92z"/>
			<g>
				<path class="st9" d="M420.37,239.07c3.28,0,4.02-1.58,4.67-3.4h2.86v27.03h-4.25v-20.62h-3.28V239.07z"/>
				<path class="st9" d="M439.25,239.23c-1.35,0-2.2,0.73-2.2,2.66v2.9h-4.02v-2.63c0-4.33,2.16-6.8,6.33-6.8s6.33,2.47,6.33,6.8
					c0,8.5-8.46,11.66-8.46,16.1c0,0.19,0,0.39,0.04,0.58h8.03v3.86h-12.28v-3.32c0-7.96,8.42-9.27,8.42-17.07
					C441.45,239.88,440.6,239.23,439.25,239.23z"/>
			</g>
		</g>
	</g>
	<g class="st0">
		<g class="st14">
			<circle cx="88.84" cy="100.06" r="38.44"/>
		</g>
		<g class="st15">
			<g>
				<circle class="st5" cx="88.84" cy="96.14" r="38.44"/>
			</g>
		</g>
		<g class="st15">
			
				<ellipse transform="matrix(0.162 -0.9868 0.9868 0.162 -20.4188 168.2294)" class="st6" cx="88.84" cy="96.14" rx="35.41" ry="35.41"/>
		</g>
		<g class="st15">
			<g>
				<rect x="87.61" y="63.95" class="st5" width="1.33" height="7.38"/>
			</g>
			<g>
				<rect x="87.61" y="120.75" class="st5" width="1.33" height="7.38"/>
			</g>
		</g>
		<g class="st15">
			<g>
				<rect x="56.17" y="95.38" class="st5" width="7.38" height="1.33"/>
			</g>
			<g>
				<rect x="112.98" y="95.38" class="st5" width="7.38" height="1.33"/>
			</g>
		</g>
		<g class="st15">
			<g>
				
					<rect x="104.66" y="75.3" transform="matrix(0.7071 -0.7071 0.7071 0.7071 -21.9748 98.8639)" class="st5" width="7.38" height="1.33"/>
			</g>
			<g>
				
					<rect x="64.49" y="115.46" transform="matrix(0.7071 -0.7071 0.7071 0.7071 -62.1421 82.2265)" class="st5" width="7.38" height="1.33"/>
			</g>
		</g>
		<g class="st15">
			<g>
				
					<rect x="67.52" y="72.27" transform="matrix(0.7071 -0.7071 0.7071 0.7071 -33.7395 70.4617)" class="st5" width="1.33" height="7.38"/>
			</g>
			<g>
				
					<rect x="107.69" y="112.43" transform="matrix(0.7071 -0.7071 0.7071 0.7071 -50.377 110.6201)" class="st5" width="1.33" height="7.38"/>
			</g>
		</g>
		<g class="st14">
			<path d="M124.25,96.14c0,0.68-0.02,1.35-0.06,2.02c-1.05-18.59-16.5-33.39-35.35-33.39c-18.85,0-34.3,14.8-35.35,33.39
				c-0.04-0.67-0.06-1.34-0.06-2.02c0-19.53,15.88-35.41,35.41-35.41C108.36,60.73,124.25,76.61,124.25,96.14z"/>
		</g>
		<g class="st15">
			<g>
				<g>
					
						<rect x="93.51" y="91.43" transform="matrix(0.3664 -0.9305 0.9305 0.3664 -31.7252 149.7297)" class="st16" width="1.14" height="13.46"/>
				</g>
			</g>
		</g>
		<g class="st15">
			<polygon class="st5" points="88.84,96.61 68.18,96.61 68.18,95.47 87.7,95.47 87.7,79.44 88.84,79.44 			"/>
		</g>
	</g>
	<g>
		<g>
			<path class="st18" d="M278,160.25c-9.8,4.25-16.51,5.83-34.26,19.14c-0.04,0.03-0.08,0.06-0.12,0.09
				c0.03-0.04,0.05-0.08,0.08-0.12c11.85-18.76,12.88-25.57,16.33-35.69c3.47-10.16,14.76-15.99,14.76-15.99l9.59,7.6l0.04,0.04
				l8.34,8.95C292.76,144.26,287.85,155.98,278,160.25z"/>
			<path class="st12" d="M257.02,164.96c2.85-6.03,4.3-10.55,5.79-15.23c0.49-1.52,0.99-3.09,1.54-4.71
				c1.82-5.33,9.22-11.96,12.25-14.07l6.09,5.62l6.26,5.78c-1.85,3.19-7.46,11.46-12.65,13.71c-1.57,0.68-3.1,1.31-4.57,1.91
				C267.2,159.83,262.8,161.64,257.02,164.96z"/>
			<path class="st19" d="M264.64,156.71c0.99-2.37,1.86-4.6,2.71-6.8l0.01-0.03c0.65-1.68,1.33-3.43,2.05-5.2
				c1.37-3.34,5.97-8.25,9.59-11.52l7.62,7.03c-3.09,4.31-7.36,9.27-10.38,10.79c-1.72,0.87-3.4,1.68-5.03,2.47l-0.02,0.01
				C269.07,154.49,266.92,155.53,264.64,156.71z"/>
		</g>
		<g>
			<path class="st16" d="M285.3,101.05c-2.27-0.15-4.64,0.26-7,1.04c-11.74,3.84-23.51,16.77-23.51,16.77s0,0,0-0.01
				c-0.17-0.28-7.26-11.9,0.67-27.4c4.16-8.13,11.38-13.06,17.37-15.93c1.09-0.52,2.14-0.24,2.85,0.41
				c0.51,0.47,0.84,1.15,0.87,1.86c0.02,0.62-0.18,1.27-0.71,1.83l17.35-5.66l12.99-4.24c0,0,0.01,0,0.01,0
				C300.29,84.73,285.3,101.05,285.3,101.05z"/>
			<path class="st20" d="M254.79,118.85c-0.17-0.28-7.26-11.9,0.67-27.4c4.16-8.13,11.38-13.06,17.37-15.93
				c1.09-0.52,2.14-0.24,2.85,0.41c0.51,0.47,0.84,1.15,0.87,1.86c-0.21,0.59-0.45,1.2-0.71,1.83c0,0-12.62,7.01-18.1,19.62
				C252.35,111.66,254.71,118.64,254.79,118.85z"/>
			<path class="st17" d="M285.3,101.05c-2.27-0.15-4.64,0.26-7,1.04c2.71-10.7,9.06-20.68,14.89-28.12l12.99-4.24c0,0,0.01,0,0.01,0
				C300.29,84.73,285.3,101.05,285.3,101.05z"/>
		</g>
		<g>
			<path class="st16" d="M318.45,131.64c0.33,2.25,0.11,4.64-0.47,7.06c-2.89,12.01-14.83,24.78-14.83,24.78s0,0,0.01,0
				c0.29,0.15,12.45,6.29,27.25-2.87c7.77-4.8,12.11-12.39,14.48-18.59c0.43-1.13,0.07-2.15-0.64-2.81
				c-0.51-0.47-1.21-0.75-1.92-0.72c-0.62,0.03-1.25,0.29-1.77,0.85l4.25-17.75l3.18-13.29c0,0,0-0.01,0-0.01
				C333.52,115.39,318.45,131.64,318.45,131.64z"/>
			<path class="st20" d="M303.16,163.49c0.29,0.15,12.45,6.29,27.25-2.87c7.77-4.8,12.11-12.39,14.48-18.59
				c0.43-1.13,0.07-2.15-0.64-2.81c-0.51-0.47-1.21-0.75-1.92-0.72c-0.57,0.26-1.16,0.54-1.77,0.85c0,0-5.97,13.14-18.1,19.62
				C310.53,165.34,303.38,163.55,303.16,163.49z"/>
			<path class="st17" d="M318.45,131.64c0.33,2.25,0.11,4.64-0.47,7.06c10.45-3.56,19.88-10.69,26.84-17.1l3.18-13.29
				c0,0,0-0.01,0-0.01C333.52,115.39,318.45,131.64,318.45,131.64z"/>
		</g>
		<path class="st6" d="M346.72,109.51c-3.82,4.14-6.94,7.37-10.26,10.28c-3.32,2.9-6.84,5.47-11.47,8.29
			c-0.15,0.09-0.3,0.18-0.45,0.26l-7.73,4.03l-8.54,4.45l-16.24,8.46l-18.31-16.89l0.81-1.92l6.32-14.95l3.75-8.87
			c4.7-11.2,11.34-21.71,19.66-30.86c0.24-0.26,0.48-0.52,0.72-0.78c11.49-12.46,23.15-20.6,33.62-25.92
			c0.75-0.38,1.49-0.74,2.22-1.09c1.76-0.84,3.48-1.6,5.16-2.29c0.72-0.3,1.44-0.58,2.15-0.85c0.36-0.14,0.72-0.27,1.07-0.41
			c4.56-1.69,8.74-2.85,12.39-3.64c4.26-0.92,7.8-1.35,10.38-1.54c2.82-0.21,4.97,1.78,4.99,4.6c0.04,4.8-0.47,12.96-3.33,23.11
			c-0.11,0.4-0.23,0.81-0.35,1.21c-0.21,0.72-0.44,1.45-0.68,2.2c-0.55,1.73-1.18,3.5-1.88,5.32c-0.28,0.74-0.58,1.48-0.89,2.23
			C365.39,84.8,358.21,97.06,346.72,109.51z"/>
		<path class="st5" d="M300.53,140.85l-8.49,4.43c-0.99-0.51-1.95-1.05-2.88-1.6c-0.79-0.47-1.56-0.96-2.32-1.47
			c-2.68-1.81-5.12-3.83-7.28-6.08c-2.23-2.32-4.18-4.89-5.82-7.73l3.73-8.82c2.24,3.49,4.76,6.68,7.54,9.58
			c3.29,3.42,6.95,6.44,11,9.04c0.67,0.43,1.36,0.86,2.05,1.27C298.86,139.94,299.69,140.4,300.53,140.85z"/>
		<path class="st7" d="M279.56,136.12c-2.23-2.32-4.18-4.89-5.82-7.73l3.73-8.82l3.4-8.05l3.75-8.87
			c4.7-11.2,11.34-21.71,19.66-30.86c0.24-0.26,0.48-0.52,0.72-0.78c15.55-16.86,31.4-25.82,44.22-30.57
			c4.56-1.69,8.74-2.85,12.39-3.64c0.69,3.27,2.09,3.6-1.82,9.19c0,0-36.66,11.22-54.09,37.77c-15.97,24.33-5.12,25.46-5.12,25.46
			L285,129.15L279.56,136.12z"/>
		<g>
			<path class="st16" d="M275.62,146.73c-0.6,0.29-1.23,0.14-1.64-0.24c-0.41-0.38-0.61-0.99-0.37-1.62
				c9.15-23.18,39.41-47.23,52.11-56.58c0.65-0.48,1.39-0.33,1.86,0.1c0.47,0.44,0.67,1.16,0.25,1.85
				C319.53,103.66,297.99,135.75,275.62,146.73z"/>
			<path class="st17" d="M327.58,88.39l-53.6,58.1c-0.41-0.38-0.61-0.99-0.37-1.62c9.15-23.18,39.41-47.23,52.11-56.58
				C326.36,87.82,327.11,87.96,327.58,88.39z"/>
		</g>
		<g>
			<g>
				<path class="st5" d="M351.94,82.55c-5.22,5.66-14.04,6.01-19.7,0.79c-5.66-5.22-6.01-14.04-0.79-19.7
					c5.22-5.66,14.04-6.01,19.7-0.79C356.8,68.07,357.16,76.89,351.94,82.55z"/>
				<path class="st21" d="M349.79,80.58c-0.03,0.04-0.07,0.07-0.1,0.11c-4.1,4.33-10.93,4.61-15.37,0.62
					c-0.04-0.03-0.07-0.06-0.11-0.1c-0.76-0.7-1.4-1.49-1.92-2.33c-0.94-1.53-1.47-3.25-1.6-5c-0.1-1.5,0.09-3.01,0.6-4.44
					c0.48-1.37,1.25-2.67,2.29-3.81c4.12-4.47,11.11-4.75,15.58-0.63c1.14,1.05,2,2.28,2.59,3.61c0.62,1.39,0.94,2.88,0.95,4.38
					c0.02,1.75-0.38,3.51-1.19,5.11C351.07,78.98,350.5,79.81,349.79,80.58z"/>
				<path class="st22" d="M351.52,78.1c0.81-1.6,1.21-3.36,1.19-5.11c-0.01-1.5-0.33-2.99-0.95-4.38c-0.59-1.33-1.46-2.56-2.59-3.61
					c-4.47-4.12-11.46-3.84-15.58,0.63c-0.21,0.22-0.4,0.45-0.58,0.69c4.18-3.84,10.69-3.89,14.93,0.02c1.14,1.05,2,2.28,2.59,3.61
					c0.62,1.39,0.94,2.88,0.95,4.38c0.02,1.75-0.38,3.51-1.19,5.11c-0.32,0.62-0.7,1.22-1.14,1.79c0.19-0.17,0.37-0.35,0.55-0.54
					c0.03-0.03,0.07-0.07,0.1-0.11C350.5,79.81,351.07,78.98,351.52,78.1z"/>
			</g>
			<path class="st23" d="M349.16,70.13c0,0,0.23,6.29-4.23,9.15c-4.89,3.13-9.03,0.59-11.77-3.9c0,0,0.36,5.12,6.34,7.04
				C345.73,84.44,351.67,77.8,349.16,70.13z"/>
		</g>
		<g>
			<path class="st16" d="M373.64,62.97c-9.45-6.1-17.59-13.61-24.42-22.53c9.89-3.66,17.98-4.83,22.76-5.18
				c1.72-0.13,3.19,0.56,4.08,1.76c0.57,0.77,0.9,1.74,0.91,2.85C377.01,44.66,376.5,52.83,373.64,62.97z"/>
			<path class="st20" d="M374.89,45.69c0.08-0.93,0.23-1.56,0.39-3c0.26-2.24-0.16-3.18-1.68-3.15c-2.77,0.05-5.64,11.4-2.51,15.6
				C373.52,58.42,374.55,49.72,374.89,45.69z"/>
			<path class="st4" d="M373.64,62.97c-9.45-6.1-17.59-13.61-24.42-22.53c9.89-3.66,17.98-4.83,22.76-5.18
				c1.72-0.13,3.19,0.56,4.08,1.76c-0.97-0.02-7.95-0.01-11.79,4.15C360.14,45.64,362.3,54.87,373.64,62.97z"/>
		</g>
	</g>
</g>
<g id="DESIGNED_BY_FREEPIK" class="st0">
	<g class="st15">
		<g id="XMLID_319_">
			<g id="XMLID_338_">
				<path id="XMLID_346_" class="st24" d="M261.44,464.89c-0.49,0.5-0.91,1.05-1.26,1.65l-0.53-0.27c-0.08-0.34-0.4-0.57-0.75-0.53
					c-0.37,0.04-0.64,0.38-0.6,0.76c0.04,0.37,0.38,0.64,0.76,0.6c0.07-0.01,0.14-0.03,0.21-0.06l0.51,0.27
					c-0.28,0.63-0.49,1.29-0.61,1.97l0.85,0.15c0.26-1.48,0.96-2.84,2.03-3.93L261.44,464.89z"/>
				<path id="XMLID_345_" class="st24" d="M267.66,462.29c-0.19,0-0.39,0.01-0.58,0.02L267,461.6c0.21-0.17,0.33-0.44,0.3-0.73
					c-0.05-0.45-0.46-0.76-0.9-0.71c-0.45,0.05-0.76,0.46-0.71,0.9c0.03,0.29,0.21,0.52,0.46,0.64l0.08,0.71
					c-0.81,0.13-1.59,0.38-2.33,0.73l0.37,0.77c1.06-0.51,2.2-0.76,3.39-0.76c0.56,0,1.12,0.06,1.67,0.18l0.18-0.84
					C268.9,462.35,268.28,462.29,267.66,462.29z"/>
				<path id="XMLID_344_" class="st24" d="M275.13,465.17c0.37-0.05,0.64-0.39,0.6-0.76c-0.05-0.37-0.39-0.64-0.76-0.6
					c-0.35,0.04-0.61,0.34-0.6,0.69l-0.47,0.41c-0.47-0.49-1.01-0.92-1.59-1.29l-0.46,0.73c1.28,0.81,2.29,1.95,2.9,3.31l0.78-0.35
					c-0.28-0.63-0.64-1.21-1.07-1.75l0.46-0.4C274.99,465.18,275.06,465.18,275.13,465.17z"/>
				<path id="XMLID_343_" class="st24" d="M267.04,473.85c-0.44,0.03-0.88,0.04-1.31,0.04c-1,0-1.96-0.07-2.81-0.2
					c-0.44-0.07-0.96-0.18-1.44-0.33c1.18,2.11,3.48,3.54,6.1,3.54c3.23,0,5.96-2.17,6.74-5.1c-0.77,0.51-1.7,0.93-2.78,1.27
					C270.2,473.48,268.64,473.75,267.04,473.85z"/>
				<path id="XMLID_339_" class="st24" d="M267.66,464c-3.8,0-6.88,3.02-6.88,6.73c0,0.48,0.05,0.96,0.16,1.43
					c0.76,0.55,3.06,1.01,6.06,0.83c3.26-0.2,6-1.08,7.56-2.44c-0.01-0.22-0.02-0.44-0.05-0.66C274.06,466.53,271.12,464,267.66,464
					z M265.21,471.38c-1.15,0-2.09-0.94-2.09-2.09c0-1.15,0.94-2.09,2.09-2.09c1.15,0,2.09,0.94,2.09,2.09
					C267.31,470.44,266.37,471.38,265.21,471.38z M270.58,470.35c-0.85,0-1.54-0.69-1.54-1.54c0-0.85,0.69-1.54,1.54-1.54
					c0.85,0,1.54,0.69,1.54,1.54C272.12,469.66,271.42,470.35,270.58,470.35z"/>
			</g>
			<path id="XMLID_336_" class="st24" d="M285.78,466.12c-0.33-0.13-0.91-0.35-1.57-0.27c-0.62,0.08-0.96,0.39-0.96,1.14v0.98h2.52
				v1.94h-2.52v6.18h-2.19v-6.18h-1.52v-1.94h1.52v-1.01c0-1.9,1.01-3.15,2.91-3.15c0.73,0,1.31,0.14,1.8,0.35L285.78,466.12z"/>
			<path id="XMLID_334_" class="st24" d="M291.1,469.89c-0.2-0.03-0.4-0.05-0.6-0.05c-1.01,0-1.71,0.62-1.71,1.83v4.43h-2.19v-8.12
				h2.12v0.89c0.51-0.76,1.29-1.11,2.29-1.11c0.47,0,0.96,0.14,1.24,0.38L291.1,469.89z"/>
			<path id="XMLID_331_" class="st24" d="M299.79,472.02c0,0.25-0.02,0.55-0.04,0.74h-5.76c0.23,1.17,1.06,1.68,2.09,1.68
				c0.7,0,1.47-0.28,2.05-0.78l1.28,1.41c-0.92,0.85-2.1,1.23-3.46,1.23c-2.49,0-4.22-1.69-4.22-4.25c0-2.56,1.68-4.3,4.11-4.3
				C298.18,467.75,299.78,469.49,299.79,472.02z M293.99,471.26h3.6c-0.2-1.04-0.83-1.63-1.77-1.63
				C294.79,469.64,294.19,470.26,293.99,471.26z"/>
			<path id="XMLID_328_" class="st24" d="M308.45,472.02c0,0.25-0.02,0.55-0.04,0.74h-5.76c0.23,1.17,1.06,1.68,2.09,1.68
				c0.7,0,1.47-0.28,2.05-0.78l1.28,1.41c-0.92,0.85-2.1,1.23-3.46,1.23c-2.49,0-4.22-1.69-4.22-4.25c0-2.56,1.68-4.3,4.11-4.3
				C306.84,467.75,308.44,469.49,308.45,472.02z M302.66,471.26h3.6c-0.2-1.04-0.83-1.63-1.77-1.63
				C303.46,469.64,302.85,470.26,302.66,471.26z"/>
			<path id="XMLID_325_" class="st24" d="M317.9,472.02c0,2.44-1.69,4.27-3.93,4.27c-1.09,0-1.86-0.43-2.39-1.06v4.2h-2.18v-11.47
				h2.14v0.9c0.53-0.66,1.31-1.11,2.42-1.11C316.21,467.75,317.9,469.59,317.9,472.02z M311.47,472.02c0,1.28,0.85,2.24,2.09,2.24
				c1.29,0,2.1-1,2.1-2.24c0-1.24-0.8-2.24-2.1-2.24C312.32,469.79,311.47,470.74,311.47,472.02z"/>
			<path id="XMLID_322_" class="st24" d="M321.42,465.31c0,0.79-0.61,1.39-1.4,1.39c-0.79,0-1.39-0.6-1.39-1.39
				c0-0.79,0.6-1.41,1.39-1.41C320.81,463.9,321.42,464.52,321.42,465.31z M321.12,476.09h-2.19v-8.12h2.19V476.09z"/>
			<path id="XMLID_320_" class="st24" d="M324.77,470.86l3.06-2.89h2.68l-3.94,3.82l3.96,4.3h-2.69l-3.08-3.29v3.29h-2.19v-12.07
				h2.19V470.86z"/>
		</g>
		<g>
			<path class="st24" d="M175.73,476.02v-1.19c-0.6,0.81-1.58,1.39-2.7,1.39c-2.09,0-3.57-1.59-3.57-4.2c0-2.55,1.46-4.21,3.57-4.21
				c1.08,0,2.06,0.53,2.7,1.41v-4.26h1.24v11.06H175.73z M175.73,473.84v-3.63c-0.45-0.7-1.41-1.29-2.41-1.29
				c-1.61,0-2.57,1.33-2.57,3.1c0,1.77,0.96,3.08,2.57,3.08C174.32,475.1,175.28,474.54,175.73,473.84z"/>
			<path class="st24" d="M178.58,472c0-2.32,1.66-4.2,3.95-4.2c2.42,0,3.85,1.89,3.85,4.3v0.32h-6.49c0.1,1.51,1.16,2.77,2.89,2.77
				c0.91,0,1.84-0.37,2.47-1.01l0.6,0.81c-0.8,0.8-1.87,1.23-3.18,1.23C180.29,476.22,178.58,474.51,178.58,472z M182.51,468.83
				c-1.71,0-2.55,1.44-2.62,2.67h5.26C185.13,470.31,184.34,468.83,182.51,468.83z"/>
			<path class="st24" d="M187.27,474.95l0.65-0.9c0.53,0.61,1.54,1.14,2.64,1.14c1.23,0,1.89-0.58,1.89-1.38
				c0-1.94-4.96-0.75-4.96-3.72c0-1.24,1.08-2.31,2.99-2.31c1.36,0,2.32,0.51,2.97,1.16l-0.58,0.86c-0.48-0.58-1.36-1.01-2.39-1.01
				c-1.09,0-1.77,0.55-1.77,1.26c0,1.76,4.96,0.6,4.96,3.72c0,1.34-1.08,2.42-3.15,2.42C189.2,476.22,188.09,475.82,187.27,474.95z"
				/>
			<path class="st24" d="M195.05,466.03c0-0.46,0.38-0.85,0.83-0.85c0.46,0,0.85,0.38,0.85,0.85c0,0.46-0.38,0.83-0.85,0.83
				C195.43,466.86,195.05,466.5,195.05,466.03z M195.27,476.02V468h1.24v8.01H195.27z"/>
			<path class="st24" d="M198.57,478.07l0.63-0.93c0.66,0.8,1.46,1.09,2.6,1.09c1.33,0,2.57-0.65,2.57-2.41v-1.14
				c-0.58,0.81-1.56,1.43-2.69,1.43c-2.09,0-3.57-1.56-3.57-4.15c0-2.57,1.46-4.16,3.57-4.16c1.08,0,2.04,0.53,2.69,1.41V468h1.24
				v7.78c0,2.65-1.86,3.48-3.81,3.48C200.44,479.27,199.51,479,198.57,478.07z M204.37,473.71v-3.5c-0.43-0.7-1.39-1.29-2.39-1.29
				c-1.61,0-2.57,1.28-2.57,3.05c0,1.76,0.96,3.05,2.57,3.05C202.98,475.02,203.94,474.41,204.37,473.71z"/>
			<path class="st24" d="M213.1,476.02v-5.24c0-1.41-0.71-1.86-1.79-1.86c-0.98,0-1.91,0.6-2.37,1.24v5.86h-1.24V468h1.24v1.16
				c0.56-0.66,1.66-1.36,2.85-1.36c1.68,0,2.55,0.85,2.55,2.59v5.62H213.1z"/>
			<path class="st24" d="M215.95,472c0-2.32,1.66-4.2,3.95-4.2c2.42,0,3.85,1.89,3.85,4.3v0.32h-6.49c0.1,1.51,1.16,2.77,2.89,2.77
				c0.91,0,1.84-0.37,2.47-1.01l0.6,0.81c-0.8,0.8-1.87,1.23-3.18,1.23C217.66,476.22,215.95,474.51,215.95,472z M219.88,468.83
				c-1.71,0-2.55,1.44-2.62,2.67h5.26C222.5,470.31,221.71,468.83,219.88,468.83z"/>
			<path class="st24" d="M231.15,476.02v-1.19c-0.6,0.81-1.58,1.39-2.7,1.39c-2.09,0-3.57-1.59-3.57-4.2c0-2.55,1.46-4.21,3.57-4.21
				c1.08,0,2.06,0.53,2.7,1.41v-4.26h1.24v11.06H231.15z M231.15,473.84v-3.63c-0.45-0.7-1.41-1.29-2.41-1.29
				c-1.61,0-2.57,1.33-2.57,3.1c0,1.77,0.96,3.08,2.57,3.08C229.74,475.1,230.7,474.54,231.15,473.84z"/>
			<path class="st24" d="M238.33,476.02v-11.06h1.24v4.26c0.65-0.88,1.61-1.41,2.7-1.41c2.09,0,3.57,1.66,3.57,4.21
				c0,2.6-1.48,4.2-3.57,4.2c-1.13,0-2.11-0.58-2.7-1.39v1.19H238.33z M241.96,475.1c1.63,0,2.59-1.31,2.59-3.08
				c0-1.78-0.96-3.1-2.59-3.1c-0.98,0-1.96,0.6-2.39,1.29v3.63C240,474.54,240.98,475.1,241.96,475.1z"/>
			<path class="st24" d="M247.2,478.02c0.18,0.08,0.48,0.13,0.68,0.13c0.55,0,0.91-0.18,1.19-0.85l0.53-1.21l-3.35-8.09h1.34
				l2.67,6.57l2.65-6.57h1.36l-4.01,9.64c-0.48,1.16-1.29,1.61-2.36,1.63c-0.27,0-0.68-0.05-0.91-0.12L247.2,478.02z"/>
		</g>
	</g>
</g>
</svg>
